<svg width="20" height="20" viewBox="0 0 24 24" fill="none" xmlns="http://www.w3.org/2000/svg">
    <path d="M21.6017 8.50144L18.5079 3.68895C18.4768 3.64055 18.434 3.60076 18.3835 3.57321C18.3329 3.54565 18.2763 3.53123 18.2188 3.53125H14.0938V1.64062C14.0934 1.32164 13.9665 1.01583 13.741 0.790277C13.5154 0.564723 13.2096 0.437853 12.8906 0.4375H1.54688C1.22789 0.437853 0.92208 0.564723 0.696527 0.790277C0.470973 1.01583 0.344103 1.32164 0.34375 1.64062V14.1875C0.34375 14.2787 0.379966 14.3661 0.444432 14.4306C0.508898 14.495 0.596332 14.5312 0.6875 14.5312H2.08742C2.17005 15.1039 2.45627 15.6276 2.89362 16.0064C3.33098 16.3851 3.89018 16.5936 4.46875 16.5936C5.04732 16.5936 5.60652 16.3851 6.04388 16.0064C6.48123 15.6276 6.76745 15.1039 6.85008 14.5312H15.1499C15.2326 15.1039 15.5188 15.6276 15.9561 16.0064C16.3935 16.3851 16.9527 16.5936 17.5312 16.5936C18.1098 16.5936 18.669 16.3851 19.1064 16.0064C19.5437 15.6276 19.8299 15.1039 19.9126 14.5312H21.3125C21.4037 14.5312 21.4911 14.495 21.5556 14.4306C21.62 14.3661 21.6562 14.2787 21.6562 14.1875V8.6875C21.6562 8.62154 21.6373 8.55696 21.6017 8.50144ZM4.46875 15.9062C4.12881 15.9062 3.79651 15.8054 3.51386 15.6166C3.23122 15.4277 3.01092 15.1593 2.88083 14.8452C2.75074 14.5312 2.71671 14.1856 2.78303 13.8522C2.84934 13.5188 3.01304 13.2125 3.25341 12.9722C3.49378 12.7318 3.80003 12.5681 4.13344 12.5018C4.46684 12.4355 4.81243 12.4695 5.12649 12.5996C5.44055 12.7297 5.70898 12.95 5.89784 13.2326C6.0867 13.5153 6.1875 13.8476 6.1875 14.1875C6.18705 14.6432 6.00582 15.0801 5.68359 15.4023C5.36136 15.7246 4.92445 15.9058 4.46875 15.9062ZM13.4062 13.8437H6.85008C6.76745 13.2711 6.48123 12.7474 6.04388 12.3686C5.60652 11.9899 5.04732 11.7814 4.46875 11.7814C3.89018 11.7814 3.33098 11.9899 2.89362 12.3686C2.45627 12.7474 2.17005 13.2711 2.08742 13.8437H1.03125V10.4062H13.4062V13.8437ZM13.4062 9.71875H1.03125V1.64062C1.03136 1.50391 1.08572 1.37282 1.1824 1.27615C1.27907 1.17948 1.41016 1.12511 1.54688 1.125H12.8906C13.0273 1.12511 13.1584 1.17948 13.2551 1.27615C13.3518 1.37282 13.4061 1.50391 13.4062 1.64062V9.71875ZM18.694 5.25L20.683 8.34375H15.8125V5.25H18.694ZM17.5312 15.9062C17.1913 15.9062 16.859 15.8054 16.5764 15.6166C16.2937 15.4277 16.0734 15.1593 15.9433 14.8452C15.8132 14.5312 15.7792 14.1856 15.8455 13.8522C15.9118 13.5188 16.0755 13.2125 16.3159 12.9722C16.5563 12.7318 16.8625 12.5681 17.1959 12.5018C17.5293 12.4355 17.8749 12.4695 18.189 12.5996C18.503 12.7297 18.7715 12.95 18.9603 13.2326C19.1492 13.5153 19.25 13.8476 19.25 14.1875C19.2495 14.6432 19.0683 15.0801 18.7461 15.4023C18.4239 15.7246 17.987 15.9058 17.5312 15.9062ZM20.9688 11.0937H20.2812C20.1901 11.0937 20.1026 11.0575 20.0382 10.9931C19.9737 10.9286 19.9375 10.8412 19.9375 10.75C19.9375 10.6588 19.9737 10.5714 20.0382 10.5069C20.1026 10.4425 20.1901 10.4062 20.2812 10.4062H20.9688V11.0937ZM20.9688 9.71875H20.2812C20.0077 9.71875 19.7454 9.8274 19.552 10.0208C19.3587 10.2142 19.25 10.4765 19.25 10.75C19.25 11.0235 19.3587 11.2858 19.552 11.4792C19.7454 11.6726 20.0077 11.7812 20.2812 11.7812H20.9688V13.8437H19.9126C19.8299 13.2711 19.5437 12.7474 19.1064 12.3686C18.669 11.9899 18.1098 11.7814 17.5312 11.7814C16.9527 11.7814 16.3935 11.9899 15.9561 12.3686C15.5188 12.7474 15.2326 13.2711 15.1499 13.8437H14.0938V4.21875H18.031L18.2523 4.5625H15.4688C15.3776 4.5625 15.2901 4.59872 15.2257 4.66318C15.1612 4.72765 15.125 4.81508 15.125 4.90625V8.6875C15.125 8.77867 15.1612 8.8661 15.2257 8.93057C15.2901 8.99503 15.3776 9.03125 15.4688 9.03125H20.9688V9.71875Z"
          fill="#000"/>
</svg>
