<svg width="22" height="22" viewBox="0 0 22 22" fill="none" xmlns="http://www.w3.org/2000/svg">
    <path d="M4.46875 16.1562C4.26479 16.1562 4.06541 16.2167 3.89582 16.33C3.72623 16.4434 3.59405 16.6044 3.516 16.7929C3.43795 16.9813 3.41752 17.1886 3.45732 17.3887C3.49711 17.5887 3.59532 17.7725 3.73955 17.9167C3.88377 18.0609 4.06752 18.1591 4.26756 18.1989C4.46761 18.2387 4.67496 18.2183 4.86339 18.1402C5.05183 18.0622 5.21289 17.93 5.3262 17.7604C5.43952 17.5908 5.5 17.3915 5.5 17.1875C5.49969 16.9141 5.39094 16.652 5.19761 16.4586C5.00428 16.2653 4.74216 16.1566 4.46875 16.1562ZM4.46875 17.5312C4.40076 17.5312 4.3343 17.5111 4.27777 17.4733C4.22124 17.4355 4.17718 17.3819 4.15117 17.319C4.12515 17.2562 4.11834 17.1871 4.1316 17.1204C4.14487 17.0538 4.17761 16.9925 4.22568 16.9444C4.27376 16.8964 4.33501 16.8636 4.40169 16.8504C4.46837 16.8371 4.53749 16.8439 4.6003 16.8699C4.66311 16.8959 4.7168 16.94 4.75457 16.9965C4.79234 17.0531 4.8125 17.1195 4.8125 17.1875C4.8124 17.2786 4.77615 17.366 4.7117 17.4305C4.64726 17.4949 4.55989 17.5311 4.46875 17.5312Z" fill="#2E3A59"/>
    <path d="M17.5313 16.1562C17.3273 16.1562 17.1279 16.2167 16.9583 16.33C16.7887 16.4434 16.6566 16.6044 16.5785 16.7929C16.5004 16.9813 16.48 17.1886 16.5198 17.3887C16.5596 17.5887 16.6578 17.7725 16.802 17.9167C16.9463 18.0609 17.13 18.1591 17.3301 18.1989C17.5301 18.2387 17.7375 18.2183 17.9259 18.1402C18.1143 18.0622 18.2754 17.93 18.3887 17.7604C18.502 17.5908 18.5625 17.3915 18.5625 17.1875C18.5622 16.9141 18.4534 16.652 18.2601 16.4586C18.0668 16.2653 17.8047 16.1566 17.5313 16.1562ZM17.5313 17.5312C17.4633 17.5312 17.3968 17.5111 17.3403 17.4733C17.2837 17.4355 17.2397 17.3819 17.2137 17.319C17.1876 17.2562 17.1808 17.1871 17.1941 17.1204C17.2074 17.0538 17.2401 16.9925 17.2882 16.9444C17.3363 16.8964 17.3975 16.8636 17.4642 16.8504C17.5309 16.8371 17.6 16.8439 17.6628 16.8699C17.7256 16.8959 17.7793 16.94 17.8171 16.9965C17.8548 17.0531 17.875 17.1195 17.875 17.1875C17.8749 17.2786 17.8386 17.366 17.7742 17.4305C17.7098 17.4949 17.6224 17.5311 17.5313 17.5312Z" fill="#2E3A59"/>
    <path d="M21.6017 11.5014L18.5079 6.68895C18.4768 6.64055 18.434 6.60076 18.3835 6.57321C18.3329 6.54565 18.2763 6.53123 18.2188 6.53125H14.0938V4.64062C14.0934 4.32164 13.9665 4.01583 13.741 3.79028C13.5154 3.56472 13.2096 3.43785 12.8906 3.4375H1.54688C1.22789 3.43785 0.92208 3.56472 0.696527 3.79028C0.470973 4.01583 0.344103 4.32164 0.34375 4.64062V17.1875C0.34375 17.2787 0.379966 17.3661 0.444432 17.4306C0.508898 17.495 0.596332 17.5312 0.6875 17.5312H2.08742C2.17005 18.1039 2.45627 18.6276 2.89362 19.0064C3.33098 19.3851 3.89018 19.5936 4.46875 19.5936C5.04732 19.5936 5.60652 19.3851 6.04388 19.0064C6.48123 18.6276 6.76745 18.1039 6.85008 17.5312H15.1499C15.2326 18.1039 15.5188 18.6276 15.9561 19.0064C16.3935 19.3851 16.9527 19.5936 17.5312 19.5936C18.1098 19.5936 18.669 19.3851 19.1064 19.0064C19.5437 18.6276 19.8299 18.1039 19.9126 17.5312H21.3125C21.4037 17.5312 21.4911 17.495 21.5556 17.4306C21.62 17.3661 21.6562 17.2787 21.6562 17.1875V11.6875C21.6562 11.6215 21.6373 11.557 21.6017 11.5014ZM4.46875 18.9062C4.12881 18.9062 3.79651 18.8054 3.51386 18.6166C3.23122 18.4277 3.01092 18.1593 2.88083 17.8452C2.75074 17.5312 2.71671 17.1856 2.78303 16.8522C2.84934 16.5188 3.01304 16.2125 3.25341 15.9722C3.49378 15.7318 3.80003 15.5681 4.13344 15.5018C4.46684 15.4355 4.81243 15.4695 5.12649 15.5996C5.44055 15.7297 5.70898 15.95 5.89784 16.2326C6.0867 16.5153 6.1875 16.8476 6.1875 17.1875C6.18705 17.6432 6.00582 18.0801 5.68359 18.4023C5.36136 18.7246 4.92445 18.9058 4.46875 18.9062ZM13.4062 16.8437H6.85008C6.76745 16.2711 6.48123 15.7474 6.04388 15.3686C5.60652 14.9899 5.04732 14.7814 4.46875 14.7814C3.89018 14.7814 3.33098 14.9899 2.89362 15.3686C2.45627 15.7474 2.17005 16.2711 2.08742 16.8437H1.03125V13.4062H13.4062V16.8437ZM13.4062 12.7187H1.03125V4.64062C1.03136 4.50391 1.08572 4.37282 1.1824 4.27615C1.27907 4.17948 1.41016 4.12511 1.54688 4.125H12.8906C13.0273 4.12511 13.1584 4.17948 13.2551 4.27615C13.3518 4.37282 13.4061 4.50391 13.4062 4.64062V12.7187ZM18.694 8.25L20.683 11.3437H15.8125V8.25H18.694ZM17.5312 18.9062C17.1913 18.9062 16.859 18.8054 16.5764 18.6166C16.2937 18.4277 16.0734 18.1593 15.9433 17.8452C15.8132 17.5312 15.7792 17.1856 15.8455 16.8522C15.9118 16.5188 16.0755 16.2125 16.3159 15.9722C16.5563 15.7318 16.8625 15.5681 17.1959 15.5018C17.5293 15.4355 17.8749 15.4695 18.189 15.5996C18.503 15.7297 18.7715 15.95 18.9603 16.2326C19.1492 16.5153 19.25 16.8476 19.25 17.1875C19.2495 17.6432 19.0683 18.0801 18.7461 18.4023C18.4239 18.7246 17.987 18.9058 17.5312 18.9062ZM20.9688 14.0937H20.2812C20.1901 14.0937 20.1026 14.0575 20.0382 13.9931C19.9737 13.9286 19.9375 13.8412 19.9375 13.75C19.9375 13.6588 19.9737 13.5714 20.0382 13.5069C20.1026 13.4425 20.1901 13.4062 20.2812 13.4062H20.9688V14.0937ZM20.9688 12.7187H20.2812C20.0077 12.7187 19.7454 12.8274 19.552 13.0208C19.3587 13.2142 19.25 13.4765 19.25 13.75C19.25 14.0235 19.3587 14.2858 19.552 14.4792C19.7454 14.6726 20.0077 14.7812 20.2812 14.7812H20.9688V16.8437H19.9126C19.8299 16.2711 19.5437 15.7474 19.1064 15.3686C18.669 14.9899 18.1098 14.7814 17.5312 14.7814C16.9527 14.7814 16.3935 14.9899 15.9561 15.3686C15.5188 15.7474 15.2326 16.2711 15.1499 16.8437H14.0938V7.21875H18.031L18.2523 7.5625H15.4688C15.3776 7.5625 15.2901 7.59872 15.2257 7.66318C15.1612 7.72765 15.125 7.81508 15.125 7.90625V11.6875C15.125 11.7787 15.1612 11.8661 15.2257 11.9306C15.2901 11.995 15.3776 12.0312 15.4688 12.0312H20.9688V12.7187Z" fill="#2E3A59"/>
    <path d="M16.5 12.7188H15.4688C15.3776 12.7188 15.2901 12.755 15.2257 12.8194C15.1612 12.8839 15.125 12.9713 15.125 13.0625C15.125 13.1537 15.1612 13.2411 15.2257 13.3056C15.2901 13.37 15.3776 13.4062 15.4688 13.4062H16.5C16.5912 13.4062 16.6786 13.37 16.7431 13.3056C16.8075 13.2411 16.8438 13.1537 16.8438 13.0625C16.8438 12.9713 16.8075 12.8839 16.7431 12.8194C16.6786 12.755 16.5912 12.7188 16.5 12.7188Z" fill="#2E3A59"/>
    <path d="M9.28125 14.7812H12.0312C12.1224 14.7812 12.2099 14.745 12.2743 14.6806C12.3388 14.6161 12.375 14.5287 12.375 14.4375C12.375 14.3463 12.3388 14.2589 12.2743 14.1944C12.2099 14.13 12.1224 14.0938 12.0312 14.0938H9.28125C9.19008 14.0938 9.10265 14.13 9.03818 14.1944C8.97372 14.2589 8.9375 14.3463 8.9375 14.4375C8.9375 14.5287 8.97372 14.6161 9.03818 14.6806C9.10265 14.745 9.19008 14.7812 9.28125 14.7812Z" fill="#2E3A59"/>
    <path d="M12.0312 15.125H11C10.9088 15.125 10.8214 15.1612 10.7569 15.2257C10.6925 15.2901 10.6562 15.3776 10.6562 15.4688C10.6562 15.5599 10.6925 15.6474 10.7569 15.7118C10.8214 15.7763 10.9088 15.8125 11 15.8125H12.0312C12.1224 15.8125 12.2099 15.7763 12.2743 15.7118C12.3388 15.6474 12.375 15.5599 12.375 15.4688C12.375 15.3776 12.3388 15.2901 12.2743 15.2257C12.2099 15.1612 12.1224 15.125 12.0312 15.125Z" fill="#2E3A59"/>
</svg>
